<?xml version="1.0" encoding="UTF-8" standalone="no"?>
<svg
   xmlns:dc="http://purl.org/dc/elements/1.1/"
   xmlns:cc="http://creativecommons.org/ns#"
   xmlns:rdf="http://www.w3.org/1999/02/22-rdf-syntax-ns#"
   xmlns:svg="http://www.w3.org/2000/svg"
   xmlns="http://www.w3.org/2000/svg"
   xmlns:sodipodi="http://sodipodi.sourceforge.net/DTD/sodipodi-0.dtd"
   xmlns:inkscape="http://www.inkscape.org/namespaces/inkscape"
   inkscape:version="1.0beta2 (2b71d25, 2019-12-03)"
   sodipodi:docname="Janata_Dal_(United)_Flag.svg"
   id="svg843"
   preserveAspectRatio="xMidYMid meet"
   viewBox="0 0 900.000000 645.000000"
   height="645.000000pt"
   width="900.000000pt"
   version="1.0">
  <defs
     id="defs847" />
  <sodipodi:namedview
     inkscape:current-layer="layer2"
     inkscape:window-maximized="0"
     inkscape:window-y="25"
     inkscape:window-x="1"
     inkscape:cy="445.75536"
     inkscape:cx="768.35134"
     inkscape:zoom="0.4"
     showgrid="false"
     id="namedview845"
     inkscape:window-height="823"
     inkscape:window-width="1439"
     inkscape:pageshadow="2"
     inkscape:pageopacity="0"
     guidetolerance="10"
     gridtolerance="10"
     objecttolerance="10"
     borderopacity="1"
     inkscape:document-rotation="0"
     bordercolor="#666666"
     pagecolor="#ffffff" />
  <metadata
     id="metadata833">
Created by potrace 1.10, written by Peter Selinger 2001-2011
<rdf:RDF>
  <cc:Work
     rdf:about="">
    <dc:format>image/svg+xml</dc:format>
    <dc:type
       rdf:resource="http://purl.org/dc/dcmitype/StillImage" />
    <dc:title></dc:title>
  </cc:Work>
</rdf:RDF>
</metadata>
  <g
     style="display:inline"
     inkscape:label="Fond Blanc"
     id="layer2"
     inkscape:groupmode="layer">
    <rect
       y="221.1279"
       x="1.1627942"
       height="212.00002"
       width="900"
       id="rect2031"
       style="fill:#ffffff;fill-rule:evenodd;stroke:none;stroke-width:0.399685;stop-color:#000000" />
  </g>
  <g
     style="display:inline"
     inkscape:label="Bas Vert"
     id="layer5"
     inkscape:groupmode="layer">
    <path
       id="path839-3"
       d="M 0.71902169,536.84367 V 643.84365 H 450.71902 900.71897 V 536.84367 429.84368 H 450.71902 0.71902169 Z"
       inkscape:connector-curvature="0"
       style="fill:#228b22;fill-opacity:1;stroke-width:0.0999997" />
  </g>
  <g
     style="display:inline"
     inkscape:label="Haut Vert"
     id="layer3"
     inkscape:groupmode="layer">
    <path
       id="path835"
       d="M 1.1627942,111.62792 V 221.1279 H 451.16279 901.16274 V 111.62792 2.127917 H 451.16279 1.1627942 Z"
       inkscape:connector-curvature="0"
       style="fill:#228b22;fill-opacity:1;stroke-width:0.0999997" />
  </g>
  <g
     style="display:inline"
     inkscape:label="flèche"
     id="layer4"
     inkscape:groupmode="layer">
    <path
       id="path837"
       d="m 142.72327,242.79339 c -9.89999,8.2 -19.99999,16.7 -22.39999,18.7 -2.4,2 -6.1,5 -8.2,6.7 -7.6,6 -28.500003,23 -34.900013,28.5 -5.99999,5.2 -18.49999,15.4 -31.69999,25.9 -3,2.39999 -5.3,4.89999 -5.1,5.59999 0.2,0.60001 9.3,8 20.3,16.3 11,8.3 23.4,17.8 27.5,20.9 10.400003,8.1 47.800003,36.7 56.400003,43.2 3.9,3 10.2,7.8 13.9,10.7 6.89999,5.4 9.1,5.9 10,2.3 0.3,-1.1 0.5,-13.5 0.5,-27.5 0,-18.5 0.4,-25.9 1.19999,-26.9 1.10001,-1.3 32.30001,-1.5 243,-1.5 200.19998,0 241.89998,0.2 242.89998,1.3 0.7,0.9 1.2,10.9 1.3,29.8 l 0.3,28.4 98.9,0.3 c 57.4,0.1 99.4,-0.2 99.9,-0.7 0.5,-0.5 -1.9,-6.2 -5.8,-13.7 -3.7,-7.1 -9.4,-18.1 -12.7,-24.4 -3.2,-6.3 -8.1,-15.6 -10.7,-20.5 -2.7,-5 -8.5,-16.1 -13,-24.69999 l -8.2,-15.7 9.2,-18.8 c 5.1,-10.3 12.5,-25.79999 16.7,-34.3 4.1,-8.5 10.1,-20.89999 13.4,-27.59999 3.7,-7.4 5.9,-13.00001 5.6,-14.50001 l -0.3,-2.4 h -96 -96 l -0.2,32.30001 c -0.1,22.89999 -0.6,32.79999 -1.4,33.79999 -1.7,2 -486.09997,2.1 -487.79997,0.10001 -0.7,-0.9 -1.2,-11.90001 -1.3,-33.80001 l -0.3,-32.4 -3.5,-0.19999 c -3.2,-0.2 -5.2,1.09999 -21.50001,14.79999 z m 537.09998,0.4 c 0.4,0.8 -1.1,5.80001 -3.1,11.1 -2.8,7 -4.2,9.4 -5.4,9.2 -1.3,-0.3 -1.7,-2.1 -1.9,-9.7 -0.2,-5.99999 0.1,-9.8 0.9,-10.7 1.6,-1.89999 8.8,-1.8 9.5,0.1 z m 30.3,-0.1 c 0.9,1 -0.7,5.2 -6.9,18.5 -4.4,9.5 -8,17.4 -8,17.6 0,0.3 -1.7,4.2 -3.9,8.7 -2.1,4.6 -5.3,11.4 -7.1,15.29999 -6.2,13.5 -7.5,15.8 -9.7,16.8 -3.6,1.60001 -5.6,0.2 -5,-3.6 0.6,-4.5 31.3,-71.89998 33.4,-73.39998 2.2,-1.70001 5.8,-1.60001 7.2,0.1 z m 30.9,-0.1 c 0.7,0.79999 0.4,2.59999 -1.3,6.19999 -1.3,2.8 -4.2,8.8 -6.3,13.5 -15.4,33.4 -25.6,54.79999 -26.9,56.2 -2,2.19999 -6.2,2.29999 -7,0.19999 -0.5,-1.39999 7.3,-20.9 15.8,-39.19999 2.2,-4.6 3.9,-8.5 3.9,-8.8 0,-1.5 12.3,-28 13.3,-28.6 1.9,-1.2 7.4,-0.9 8.5,0.50001 z m 27.6,-0.70001 c 0.9,0.3 1.6,1.00001 1.6,1.4 0,0.80001 -5.7,13.3 -13,28.5 -2.1,4.4 -7.7,16.3 -12.5,26.5 -4.8,10.19999 -9.4,19.3 -10.3,20.29999 -1.8,2.1 -5.1,1.9 -6.5,-0.3 -0.7,-1.2 3.7,-10.8 17.3,-37.99999 10,-20.1 18.6,-37.09999 19.2,-37.8 1.2,-1.39999 1.9,-1.5 4.2,-0.6 z m 31.1,0.40001 c 0.4,0.6 -7.8,17.99999 -18.1,38.59999 -18.9,37.99999 -20.6,40.69999 -24.8,39.1 -0.9,-0.40001 -1.6,-1.60001 -1.6,-2.7 0,-2.4 35.6,-74.09999 37.4,-75.2 1.7,-1.1 6.4,-0.99999 7.1,0.20001 z m 27.1,0.49999 c 0.4,0.8 -2.1,7.00001 -5.4,13.8 -9.4,19.3 -20.7,42.6 -24.2,50.2 -4.2,9 -7.6,13.5 -10.1,13.5 -3.8,0 -3.4,-3.10001 1.9,-13.40001 2.8,-5.59999 7.3,-14.89999 10.1,-20.69999 8.4,-18.1 20.2,-41.3 21.8,-43.2 2,-2.1 5.2,-2.19999 5.9,-0.2 z m -673.59998,38.2 c 0.40001,18 0.8,24.49999 1.8,25.5 1.1,1.09999 47.6,1.29999 249.50001,1.5 231.79997,0.3 248.29997,0.4 249.49997,1.99999 1.7,2.4 1.5,6.3 -0.5,8.50001 -1.6,1.69999 -11.9,1.8 -288.99998,1.8 H 77.123277 l 0.3,-2.20001 c 0.3,-2.1 8.7,-9.39999 41.900003,-36.79999 5.7,-4.7 14.8,-12.2 20.2,-16.8 5.5,-4.6 10.69999,-8.2 11.59999,-8 1.40001,0.3 1.70001,3.4 2.1,24.5 z m 500.79998,53.99999 c 0.6,0.90001 1.2,3.30001 1.2,5.3 0,2 -0.6,4.4 -1.2,5.3 -1.2,1.6 -16.9,1.70001 -248.89997,1.70001 -234.3,0 -247.80001,0.1 -249.80001,1.8 -1.99999,1.59999 -2.1,2.7 -2.4,24.69999 -0.19999,20.2 -0.4,23 -1.8,23.3 -1.39999,0.2 -28.09999,-21.1 -43.39999,-34.7 -2.30001,-2 -10.000003,-8.49999 -17.300013,-14.4 -13.29999,-10.9 -15.69999,-14.2 -10.89999,-14.9 1.2,-0.19999 130.700003,-0.19999 287.699993,0 266.29998,0.2 285.59998,0.3 286.79998,1.9 z m 24.6,0.2 c 2.8,3.10001 37.8,74.2 37.2,75.7 -0.8,2 -5.2,2.8 -8.4,1.5 -2.9,-1.2 -5.2,-5.3 -14.3,-24.6 -2.3,-5 -6.5,-14 -9.4,-20 -13.1,-27.5 -14.4,-30.8 -13.4,-32.7 1.3,-2.4 6.1,-2.4 8.3,0.1 z m 27.8,-0.2 c 0.9,1 9.8,18.1 19.7,38 15.4,30.8 18,36.6 17.1,38.3 -1.2,2.3 -1.1,2.3 -4.4,1 -2,-0.7 -4.7,-5.4 -13.7,-23.7 -6.1,-12.5 -14.3,-29 -18,-36.6 -6.6,-13.09999 -7.7,-16.5 -6.2,-18 1.2,-1.3 4,-0.7 5.5,1 z m 27.1,-0.5 c 0.9,0.7 6.4,11.2 12.3,23.3 5.9,12.1 14,28.7 18,36.90001 5.9,11.79999 7.1,15.19999 6.3,16.69999 -0.5,1.1 -1.4,1.9 -1.9,1.9 -2,0 -6,-4.9 -9.3,-11.5 -10.7,-21.4 -30.7,-64.09999 -30.7,-65.5 0,-3.09999 2.4,-3.9 5.3,-1.8 z m 31,0 c 2.4,1.8 38.7,74.7 38,76.4 -0.8,2.2 -5,2.8 -7.7,1.1 -1.3,-0.9 -3.2,-3.3 -4.3,-5.4 -9.2,-17.5 -25.3,-47.6 -35.6,-66.5 -1.7,-3.1 -1.8,-4 -0.7,-5.3 1.5,-1.8 7.9,-2 10.3,-0.3 z m 28.4,-0.4 c 2.2,1.4 37.3,73 37.3,76.1 0,3 -2.6,3.7 -5.2,1.5 -2,-1.9 -5.3,-8.3 -20.1,-39.9 -16.6,-35.4 -16.5,-35.2 -15.5,-36.9 1,-1.8 1.7,-1.9 3.5,-0.8 z m -115.2,67.5 c 3.1,6.1 3.7,8.1 2.9,9.5 -1.5,2.3 -5,2.7 -8,0.8 -2.2,-1.5 -2.4,-2.3 -2.4,-9.5 0,-11.9 1.7,-12.1 7.5,-0.8 z"
       inkscape:connector-curvature="0"
       style="fill:#228b22;fill-opacity:1;stroke-width:0.0999997" />
  </g>
</svg>
