<?xml version="1.0" encoding="UTF-8" standalone="no"?>
<svg xmlns:svg="http://www.w3.org/2000/svg"
     xmlns="http://www.w3.org/2000/svg" version="1.1"
     width="360.0" height="185.0">
    <!-- Created with parliamentarch (https://github.com/Gouvernathor/parliamentarch/) -->
    <text x="180.0" y="175.0"
          style="font-size:36px;font-weight:bold;text-align:center;text-anchor:middle;font-family:sans-serif">543</text>
    <g style="fill:#db531d"
       id="0-Bharatiya-Janata-Party">
        <title>Bharatiya Janata Party</title>
        <circle cx="8.85" cy="176.20" r="3.04"/>
        <circle cx="16.46" cy="176.20" r="3.04"/>
        <circle cx="24.07" cy="176.20" r="3.04"/>
        <circle cx="31.68" cy="176.20" r="3.04"/>
        <circle cx="39.29" cy="176.20" r="3.04"/>
        <circle cx="46.90" cy="176.20" r="3.04"/>
        <circle cx="54.51" cy="176.20" r="3.04"/>
        <circle cx="62.13" cy="176.20" r="3.04"/>
        <circle cx="69.74" cy="176.20" r="3.04"/>
        <circle cx="77.35" cy="176.20" r="3.04"/>
        <circle cx="84.97" cy="176.20" r="3.04"/>
        <circle cx="92.58" cy="176.20" r="3.04"/>
        <circle cx="9.28" cy="167.22" r="3.04"/>
        <circle cx="16.92" cy="167.17" r="3.04"/>
        <circle cx="24.54" cy="167.28" r="3.04"/>
        <circle cx="32.18" cy="167.22" r="3.04"/>
        <circle cx="39.81" cy="167.34" r="3.04"/>
        <circle cx="47.48" cy="167.09" r="3.04"/>
        <circle cx="55.11" cy="167.22" r="3.04"/>
        <circle cx="62.77" cy="167.15" r="3.04"/>
        <circle cx="70.44" cy="167.06" r="3.04"/>
        <circle cx="78.08" cy="167.23" r="3.04"/>
        <circle cx="10.19" cy="158.28" r="3.04"/>
        <circle cx="17.88" cy="158.18" r="3.04"/>
        <circle cx="85.77" cy="167.13" r="3.04"/>
        <circle cx="25.52" cy="158.40" r="3.04"/>
        <circle cx="93.42" cy="167.33" r="3.04"/>
        <circle cx="33.23" cy="158.29" r="3.04"/>
        <circle cx="40.88" cy="158.54" r="3.04"/>
        <circle cx="48.67" cy="158.04" r="3.04"/>
        <circle cx="56.34" cy="158.31" r="3.04"/>
        <circle cx="11.56" cy="149.40" r="3.04"/>
        <circle cx="64.10" cy="158.18" r="3.04"/>
        <circle cx="19.33" cy="149.26" r="3.04"/>
        <circle cx="27.01" cy="149.59" r="3.04"/>
        <circle cx="71.89" cy="158.02" r="3.04"/>
        <circle cx="34.81" cy="149.44" r="3.04"/>
        <circle cx="79.59" cy="158.35" r="3.04"/>
        <circle cx="42.51" cy="149.82" r="3.04"/>
        <circle cx="87.43" cy="158.19" r="3.04"/>
        <circle cx="13.40" cy="140.60" r="3.04"/>
        <circle cx="50.48" cy="149.10" r="3.04"/>
        <circle cx="21.27" cy="140.43" r="3.04"/>
        <circle cx="58.21" cy="149.52" r="3.04"/>
        <circle cx="95.16" cy="158.60" r="3.04"/>
        <circle cx="29.01" cy="140.88" r="3.04"/>
        <circle cx="66.12" cy="149.33" r="3.04"/>
        <circle cx="36.93" cy="140.71" r="3.04"/>
        <circle cx="44.69" cy="141.23" r="3.04"/>
        <circle cx="74.08" cy="149.13" r="3.04"/>
        <circle cx="15.70" cy="131.92" r="3.04"/>
        <circle cx="23.70" cy="131.72" r="3.04"/>
        <circle cx="81.87" cy="149.65" r="3.04"/>
        <circle cx="52.90" cy="140.30" r="3.04"/>
        <circle cx="31.49" cy="132.30" r="3.04"/>
        <circle cx="60.71" cy="140.88" r="3.04"/>
        <circle cx="89.93" cy="149.45" r="3.04"/>
        <circle cx="39.57" cy="132.12" r="3.04"/>
        <circle cx="18.44" cy="123.36" r="3.04"/>
        <circle cx="68.82" cy="140.67" r="3.04"/>
        <circle cx="47.40" cy="132.78" r="3.04"/>
        <circle cx="97.77" cy="150.08" r="3.04"/>
        <circle cx="26.61" cy="123.16" r="3.04"/>
        <circle cx="77.01" cy="140.45" r="3.04"/>
        <circle cx="34.47" cy="123.88" r="3.04"/>
        <circle cx="55.92" cy="131.69" r="3.04"/>
        <circle cx="84.90" cy="141.17" r="3.04"/>
        <circle cx="63.82" cy="132.44" r="3.04"/>
        <circle cx="42.73" cy="123.70" r="3.04"/>
        <circle cx="21.64" cy="114.96" r="3.04"/>
        <circle cx="50.63" cy="124.53" r="3.04"/>
        <circle cx="29.98" cy="114.77" r="3.04"/>
        <circle cx="72.17" cy="132.25" r="3.04"/>
        <circle cx="93.26" cy="140.98" r="3.04"/>
        <circle cx="37.92" cy="115.64" r="3.04"/>
        <circle cx="59.52" cy="123.31" r="3.04"/>
        <circle cx="25.27" cy="106.74" r="3.04"/>
        <circle cx="80.64" cy="132.04" r="3.04"/>
        <circle cx="46.39" cy="115.49" r="3.04"/>
        <circle cx="101.24" cy="141.88" r="3.04"/>
        <circle cx="67.52" cy="124.24" r="3.04"/>
        <circle cx="33.81" cy="106.58" r="3.04"/>
        <circle cx="54.38" cy="116.49" r="3.04"/>
        <circle cx="88.67" cy="133.00" r="3.04"/>
        <circle cx="41.83" cy="107.61" r="3.04"/>
        <circle cx="76.16" cy="124.10" r="3.04"/>
        <circle cx="29.33" cy="98.73" r="3.04"/>
        <circle cx="63.69" cy="115.19" r="3.04"/>
        <circle cx="50.54" cy="107.52" r="3.04"/>
        <circle cx="97.39" cy="132.88" r="3.04"/>
        <circle cx="38.09" cy="98.62" r="3.04"/>
        <circle cx="58.63" cy="108.71" r="3.04"/>
        <circle cx="71.80" cy="116.33" r="3.04"/>
        <circle cx="84.96" cy="123.96" r="3.04"/>
        <circle cx="46.20" cy="99.82" r="3.04"/>
        <circle cx="33.80" cy="90.93" r="3.04"/>
        <circle cx="105.52" cy="134.07" r="3.04"/>
        <circle cx="93.13" cy="125.19" r="3.04"/>
        <circle cx="80.76" cy="116.28" r="3.04"/>
        <circle cx="55.17" cy="99.81" r="3.04"/>
        <circle cx="42.80" cy="90.91" r="3.04"/>
        <circle cx="68.40" cy="107.37" r="3.04"/>
        <circle cx="63.36" cy="101.20" r="3.04"/>
        <circle cx="51.01" cy="92.30" r="3.04"/>
        <circle cx="38.67" cy="83.38" r="3.04"/>
        <circle cx="76.63" cy="108.75" r="3.04"/>
        <circle cx="102.27" cy="125.20" r="3.04"/>
        <circle cx="89.94" cy="116.27" r="3.04"/>
        <circle cx="47.93" cy="83.46" r="3.04"/>
        <circle cx="60.25" cy="92.40" r="3.04"/>
        <circle cx="73.64" cy="99.90" r="3.04"/>
        <circle cx="85.95" cy="108.85" r="3.04"/>
        <circle cx="98.26" cy="117.79" r="3.04"/>
        <circle cx="43.94" cy="76.10" r="3.04"/>
        <circle cx="56.25" cy="85.06" r="3.04"/>
        <circle cx="110.58" cy="126.74" r="3.04"/>
        <circle cx="68.55" cy="94.02" r="3.04"/>
        <circle cx="82.00" cy="101.53" r="3.04"/>
        <circle cx="53.47" cy="76.31" r="3.04"/>
        <circle cx="65.78" cy="85.31" r="3.04"/>
        <circle cx="95.54" cy="109.02" r="3.04"/>
        <circle cx="49.58" cy="69.11" r="3.04"/>
        <circle cx="107.86" cy="118.02" r="3.04"/>
        <circle cx="61.88" cy="78.13" r="3.04"/>
        <circle cx="79.37" cy="92.80" r="3.04"/>
        <circle cx="74.19" cy="87.17" r="3.04"/>
        <circle cx="91.69" cy="101.83" r="3.04"/>
        <circle cx="104.02" cy="110.88" r="3.04"/>
        <circle cx="59.39" cy="69.48" r="3.04"/>
        <circle cx="87.87" cy="94.72" r="3.04"/>
        <circle cx="71.72" cy="78.56" r="3.04"/>
        <circle cx="116.35" cy="119.96" r="3.04"/>
        <circle cx="55.57" cy="62.42" r="3.04"/>
        <circle cx="67.91" cy="71.53" r="3.04"/>
        <circle cx="101.71" cy="102.26" r="3.04"/>
        <circle cx="85.58" cy="86.12" r="3.04"/>
        <circle cx="80.24" cy="80.69" r="3.04"/>
        <circle cx="65.68" cy="62.99" r="3.04"/>
        <circle cx="97.96" cy="95.27" r="3.04"/>
        <circle cx="114.11" cy="111.42" r="3.04"/>
        <circle cx="61.92" cy="56.05" r="3.04"/>
        <circle cx="78.06" cy="72.19" r="3.04"/>
        <circle cx="94.21" cy="88.34" r="3.04"/>
        <circle cx="110.36" cy="104.49" r="3.04"/>
        <circle cx="74.30" cy="65.30" r="3.04"/>
        <circle cx="86.70" cy="74.61" r="3.04"/>
        <circle cx="92.23" cy="79.87" r="3.04"/>
        <circle cx="72.32" cy="56.85" r="3.04"/>
        <circle cx="122.78" cy="113.80" r="3.04"/>
        <circle cx="68.58" cy="50.02" r="3.04"/>
        <circle cx="108.43" cy="96.04" r="3.04"/>
        <circle cx="84.78" cy="66.22" r="3.04"/>
        <circle cx="104.72" cy="89.22" r="3.04"/>
        <circle cx="81.04" cy="59.43" r="3.04"/>
        <circle cx="100.99" cy="82.43" r="3.04"/>
        <circle cx="120.96" cy="105.44" r="3.04"/>
        <circle cx="79.29" cy="51.09" r="3.04"/>
        <circle cx="93.52" cy="68.94" r="3.04"/>
        <circle cx="117.24" cy="98.69" r="3.04"/>
        <circle cx="75.56" cy="44.36" r="3.04"/>
        <circle cx="99.30" cy="74.09" r="3.04"/>
        <circle cx="91.84" cy="60.66" r="3.04"/>
        <circle cx="88.10" cy="53.97" r="3.04"/>
        <circle cx="115.64" cy="90.39" r="3.04"/>
        <circle cx="111.92" cy="83.70" r="3.04"/>
        <circle cx="129.81" cy="108.33" r="3.04"/>
        <circle cx="108.18" cy="77.03" r="3.04"/>
        <circle cx="86.56" cy="45.73" r="3.04"/>
        <circle cx="82.82" cy="39.06" r="3.04"/>
        <circle cx="100.68" cy="63.71" r="3.04"/>
        <circle cx="106.74" cy="68.81" r="3.04"/>
        <circle cx="99.23" cy="55.54" r="3.04"/>
        <circle cx="128.35" cy="100.14" r="3.04"/>
        <circle cx="95.47" cy="48.91" r="3.04"/>
        <circle cx="124.60" cy="93.50" r="3.04"/>
        <circle cx="94.12" cy="40.77" r="3.04"/>
        <circle cx="90.35" cy="34.16" r="3.04"/>
        <circle cx="123.30" cy="85.36" r="3.04"/>
        <circle cx="119.52" cy="78.75" r="3.04"/>
        <circle cx="115.74" cy="72.15" r="3.04"/>
        <circle cx="108.16" cy="58.95" r="3.04"/>
        <circle cx="103.11" cy="44.29" r="3.04"/>
        <circle cx="106.92" cy="50.88" r="3.04"/>
        <circle cx="114.53" cy="64.06" r="3.04"/>
        <circle cx="137.35" cy="103.60" r="3.04"/>
        <circle cx="98.12" cy="29.65" r="3.04"/>
        <circle cx="101.94" cy="36.24" r="3.04"/>
        <circle cx="132.38" cy="88.99" r="3.04"/>
        <circle cx="136.22" cy="95.57" r="3.04"/>
        <circle cx="115.93" cy="54.67" r="3.04"/>
        <circle cx="123.62" cy="67.83" r="3.04"/>
        <circle cx="127.48" cy="74.41" r="3.04"/>
        <circle cx="111.01" cy="40.11" r="3.04"/>
        <circle cx="131.34" cy="80.98" r="3.04"/>
        <circle cx="114.87" cy="46.69" r="3.04"/>
        <circle cx="106.12" cy="25.57" r="3.04"/>
        <circle cx="122.62" cy="59.85" r="3.04"/>
        <circle cx="110.00" cy="32.14" r="3.04"/>
        <circle cx="123.95" cy="50.88" r="3.04"/>
        <circle cx="145.34" cy="99.66" r="3.04"/>
        <circle cx="119.13" cy="36.39" r="3.04"/>
        <circle cx="140.53" cy="85.17" r="3.04"/>
        <circle cx="131.80" cy="64.08" r="3.04"/>
        <circle cx="123.06" cy="42.99" r="3.04"/>
        <circle cx="114.33" cy="21.90" r="3.04"/>
        <circle cx="118.28" cy="28.50" r="3.04"/>
        <circle cx="135.75" cy="70.68" r="3.04"/>
        <circle cx="144.48" cy="91.77" r="3.04"/>
        <circle cx="130.98" cy="56.20" r="3.04"/>
        <circle cx="139.72" cy="77.29" r="3.04"/>
        <circle cx="132.19" cy="47.61" r="3.04"/>
        <circle cx="127.45" cy="33.14" r="3.04"/>
        <circle cx="122.71" cy="18.67" r="3.04"/>
        <circle cx="131.46" cy="39.79" r="3.04"/>
        <circle cx="126.74" cy="25.33" r="3.04"/>
        <circle cx="140.22" cy="60.93" r="3.04"/>
        <circle cx="139.58" cy="53.13" r="3.04"/>
        <circle cx="144.28" cy="67.60" r="3.04"/>
        <circle cx="148.98" cy="82.08" r="3.04"/>
        <circle cx="153.69" cy="96.55" r="3.04"/>
        <circle cx="148.38" cy="74.30" r="3.04"/>
        <circle cx="131.26" cy="15.89" r="3.04"/>
        <circle cx="153.07" cy="88.78" r="3.04"/>
        <circle cx="135.94" cy="30.37" r="3.04"/>
        <circle cx="140.62" cy="44.86" r="3.04"/>
        <circle cx="135.37" cy="22.62" r="3.04"/>
        <circle cx="140.04" cy="37.11" r="3.04"/>
        <circle cx="148.85" cy="58.38" r="3.04"/>
        <circle cx="148.36" cy="50.66" r="3.04"/>
        <circle cx="139.93" cy="13.56" r="3.04"/>
        <circle cx="153.02" cy="65.19" r="3.04"/>
        <circle cx="144.58" cy="28.10" r="3.04"/>
        <circle cx="144.13" cy="20.39" r="3.04"/>
        <circle cx="149.21" cy="42.65" r="3.04"/>
        <circle cx="157.67" cy="79.74" r="3.04"/>
        <circle cx="148.77" cy="34.95" r="3.04"/>
        <circle cx="157.26" cy="72.04" r="3.04"/>
        <circle cx="162.30" cy="94.31" r="3.04"/>
        <circle cx="161.91" cy="86.63" r="3.04"/>
        <circle cx="148.72" cy="11.69" r="3.04"/>
        <circle cx="157.63" cy="56.47" r="3.04"/>
        <circle cx="153.33" cy="26.32" r="3.04"/>
        <circle cx="157.29" cy="48.80" r="3.04"/>
        <circle cx="153.00" cy="18.66" r="3.04"/>
        <circle cx="157.92" cy="40.98" r="3.04"/>
        <circle cx="161.93" cy="63.46" r="3.04"/>
        <circle cx="157.61" cy="33.33" r="3.04"/>
        <circle cx="166.54" cy="78.17" r="3.04"/>
        <circle cx="157.60" cy="10.28" r="3.04"/>
        <circle cx="166.29" cy="70.53" r="3.04"/>
        <circle cx="162.17" cy="25.04" r="3.04"/>
        <circle cx="161.95" cy="17.41" r="3.04"/>
        <circle cx="166.53" cy="55.18" r="3.04"/>
        <circle cx="166.33" cy="47.55" r="3.04"/>
        <circle cx="171.11" cy="92.95" r="3.04"/>
        <circle cx="170.91" cy="85.33" r="3.04"/>
        <circle cx="166.72" cy="39.87" r="3.04"/>
        <circle cx="166.53" cy="32.24" r="3.04"/>
        <circle cx="166.53" cy="9.33" r="3.04"/>
        <circle cx="170.94" cy="62.41" r="3.04"/>
        <circle cx="171.07" cy="24.28" r="3.04"/>
        <circle cx="170.96" cy="16.66" r="3.04"/>
        <circle cx="175.50" cy="77.38" r="3.04"/>
        <circle cx="175.42" cy="69.77" r="3.04"/>
        <circle cx="175.50" cy="54.54" r="3.04"/>
        <circle cx="175.44" cy="46.93" r="3.04"/>
        <circle cx="175.57" cy="39.31" r="3.04"/>
        <circle cx="175.51" cy="31.70" r="3.04"/>
        <circle cx="175.51" cy="8.86" r="3.04"/>
        <circle cx="180.00" cy="92.50" r="3.04"/>
        <circle cx="180.00" cy="84.89" r="3.04"/>
        <circle cx="180.00" cy="62.07" r="3.04"/>
        <circle cx="180.00" cy="24.02" r="3.04"/>
        <circle cx="180.00" cy="16.41" r="3.04"/>
        <circle cx="184.49" cy="8.86" r="3.04"/>
        <circle cx="184.49" cy="31.70" r="3.04"/>
        <circle cx="184.43" cy="39.31" r="3.04"/>
        <circle cx="184.56" cy="46.93" r="3.04"/>
        <circle cx="184.50" cy="54.54" r="3.04"/>
        <circle cx="184.58" cy="69.77" r="3.04"/>
        <circle cx="184.50" cy="77.38" r="3.04"/>
        <circle cx="189.04" cy="16.66" r="3.04"/>
        <circle cx="188.93" cy="24.28" r="3.04"/>
        <circle cx="189.06" cy="62.41" r="3.04"/>
        <circle cx="193.47" cy="9.33" r="3.04"/>
        <circle cx="193.47" cy="32.24" r="3.04"/>
        <circle cx="193.28" cy="39.87" r="3.04"/>
        <circle cx="189.09" cy="85.33" r="3.04"/>
        <circle cx="188.89" cy="92.95" r="3.04"/>
        <circle cx="193.67" cy="47.55" r="3.04"/>
        <circle cx="193.47" cy="55.18" r="3.04"/>
        <circle cx="198.05" cy="17.41" r="3.04"/>
        <circle cx="197.83" cy="25.04" r="3.04"/>
        <circle cx="193.71" cy="70.53" r="3.04"/>
        <circle cx="202.40" cy="10.28" r="3.04"/>
        <circle cx="193.46" cy="78.17" r="3.04"/>
        <circle cx="202.39" cy="33.33" r="3.04"/>
        <circle cx="198.07" cy="63.46" r="3.04"/>
        <circle cx="202.08" cy="40.98" r="3.04"/>
        <circle cx="207.00" cy="18.66" r="3.04"/>
        <circle cx="202.71" cy="48.80" r="3.04"/>
        <circle cx="206.67" cy="26.32" r="3.04"/>
        <circle cx="202.37" cy="56.47" r="3.04"/>
        <circle cx="211.28" cy="11.69" r="3.04"/>
        <circle cx="198.09" cy="86.63" r="3.04"/>
        <circle cx="197.70" cy="94.31" r="3.04"/>
        <circle cx="202.74" cy="72.04" r="3.04"/>
        <circle cx="211.23" cy="34.95" r="3.04"/>
        <circle cx="202.33" cy="79.74" r="3.04"/>
        <circle cx="210.79" cy="42.65" r="3.04"/>
        <circle cx="215.87" cy="20.39" r="3.04"/>
        <circle cx="215.42" cy="28.10" r="3.04"/>
        <circle cx="206.98" cy="65.19" r="3.04"/>
        <circle cx="220.07" cy="13.56" r="3.04"/>
        <circle cx="211.64" cy="50.66" r="3.04"/>
        <circle cx="211.15" cy="58.38" r="3.04"/>
        <circle cx="219.96" cy="37.11" r="3.04"/>
        <circle cx="224.63" cy="22.62" r="3.04"/>
        <circle cx="219.38" cy="44.86" r="3.04"/>
        <circle cx="224.06" cy="30.37" r="3.04"/>
        <circle cx="206.93" cy="88.78" r="3.04"/>
        <circle cx="228.74" cy="15.89" r="3.04"/>
        <circle cx="211.62" cy="74.30" r="3.04"/>
        <circle cx="206.31" cy="96.55" r="3.04"/>
        <circle cx="211.02" cy="82.08" r="3.04"/>
        <circle cx="215.72" cy="67.60" r="3.04"/>
        <circle cx="220.42" cy="53.13" r="3.04"/>
        <circle cx="219.78" cy="60.93" r="3.04"/>
        <circle cx="233.26" cy="25.33" r="3.04"/>
        <circle cx="228.54" cy="39.79" r="3.04"/>
        <circle cx="237.29" cy="18.67" r="3.04"/>
        <circle cx="232.55" cy="33.14" r="3.04"/>
        <circle cx="227.81" cy="47.61" r="3.04"/>
        <circle cx="220.28" cy="77.29" r="3.04"/>
        <circle cx="229.02" cy="56.20" r="3.04"/>
        <circle cx="215.52" cy="91.77" r="3.04"/>
        <circle cx="224.25" cy="70.68" r="3.04"/>
        <circle cx="241.72" cy="28.50" r="3.04"/>
        <circle cx="245.67" cy="21.90" r="3.04"/>
        <circle cx="236.94" cy="42.99" r="3.04"/>
        <circle cx="228.20" cy="64.08" r="3.04"/>
        <circle cx="219.47" cy="85.17" r="3.04"/>
        <circle cx="240.87" cy="36.39" r="3.04"/>
        <circle cx="214.66" cy="99.66" r="3.04"/>
        <circle cx="236.05" cy="50.88" r="3.04"/>
        <circle cx="250.00" cy="32.14" r="3.04"/>
        <circle cx="237.38" cy="59.85" r="3.04"/>
        <circle cx="253.88" cy="25.57" r="3.04"/>
        <circle cx="245.13" cy="46.69" r="3.04"/>
        <circle cx="228.66" cy="80.98" r="3.04"/>
        <circle cx="248.99" cy="40.11" r="3.04"/>
        <circle cx="232.52" cy="74.41" r="3.04"/>
        <circle cx="236.38" cy="67.83" r="3.04"/>
        <circle cx="244.07" cy="54.67" r="3.04"/>
        <circle cx="223.78" cy="95.57" r="3.04"/>
        <circle cx="227.62" cy="88.99" r="3.04"/>
        <circle cx="258.06" cy="36.24" r="3.04"/>
        <circle cx="261.88" cy="29.65" r="3.04"/>
        <circle cx="222.65" cy="103.60" r="3.04"/>
        <circle cx="245.47" cy="64.06" r="3.04"/>
        <circle cx="253.08" cy="50.88" r="3.04"/>
        <circle cx="256.89" cy="44.29" r="3.04"/>
        <circle cx="251.84" cy="58.95" r="3.04"/>
        <circle cx="244.26" cy="72.15" r="3.04"/>
        <circle cx="240.48" cy="78.75" r="3.04"/>
        <circle cx="236.70" cy="85.36" r="3.04"/>
        <circle cx="269.65" cy="34.16" r="3.04"/>
        <circle cx="265.88" cy="40.77" r="3.04"/>
        <circle cx="235.40" cy="93.50" r="3.04"/>
        <circle cx="264.53" cy="48.91" r="3.04"/>
        <circle cx="231.65" cy="100.14" r="3.04"/>
        <circle cx="260.77" cy="55.54" r="3.04"/>
        <circle cx="253.26" cy="68.81" r="3.04"/>
        <circle cx="259.32" cy="63.71" r="3.04"/>
        <circle cx="277.18" cy="39.06" r="3.04"/>
        <circle cx="273.44" cy="45.73" r="3.04"/>
        <circle cx="251.82" cy="77.03" r="3.04"/>
        <circle cx="230.19" cy="108.33" r="3.04"/>
        <circle cx="248.08" cy="83.70" r="3.04"/>
        <circle cx="244.36" cy="90.39" r="3.04"/>
        <circle cx="271.90" cy="53.97" r="3.04"/>
        <circle cx="268.16" cy="60.66" r="3.04"/>
        <circle cx="260.70" cy="74.09" r="3.04"/>
        <circle cx="284.44" cy="44.36" r="3.04"/>
        <circle cx="242.76" cy="98.69" r="3.04"/>
        <circle cx="266.48" cy="68.94" r="3.04"/>
        <circle cx="280.71" cy="51.09" r="3.04"/>
        <circle cx="239.04" cy="105.44" r="3.04"/>
        <circle cx="259.01" cy="82.43" r="3.04"/>
        <circle cx="278.96" cy="59.43" r="3.04"/>
        <circle cx="255.28" cy="89.22" r="3.04"/>
        <circle cx="275.22" cy="66.22" r="3.04"/>
        <circle cx="251.57" cy="96.04" r="3.04"/>
        <circle cx="291.42" cy="50.02" r="3.04"/>
        <circle cx="237.22" cy="113.80" r="3.04"/>
        <circle cx="287.68" cy="56.85" r="3.04"/>
        <circle cx="267.77" cy="79.87" r="3.04"/>
        <circle cx="273.30" cy="74.61" r="3.04"/>
        <circle cx="285.70" cy="65.30" r="3.04"/>
        <circle cx="249.64" cy="104.49" r="3.04"/>
        <circle cx="265.79" cy="88.34" r="3.04"/>
        <circle cx="281.94" cy="72.19" r="3.04"/>
        <circle cx="298.08" cy="56.05" r="3.04"/>
        <circle cx="245.89" cy="111.42" r="3.04"/>
        <circle cx="262.04" cy="95.27" r="3.04"/>
        <circle cx="294.32" cy="62.99" r="3.04"/>
        <circle cx="279.76" cy="80.69" r="3.04"/>
        <circle cx="274.42" cy="86.12" r="3.04"/>
        <circle cx="258.29" cy="102.26" r="3.04"/>
        <circle cx="292.09" cy="71.53" r="3.04"/>
        <circle cx="304.43" cy="62.42" r="3.04"/>
        <circle cx="243.65" cy="119.96" r="3.04"/>
        <circle cx="288.28" cy="78.56" r="3.04"/>
        <circle cx="272.13" cy="94.72" r="3.04"/>
        <circle cx="300.61" cy="69.48" r="3.04"/>
        <circle cx="255.98" cy="110.88" r="3.04"/>
        <circle cx="268.31" cy="101.83" r="3.04"/>
        <circle cx="285.81" cy="87.17" r="3.04"/>
        <circle cx="280.63" cy="92.80" r="3.04"/>
        <circle cx="298.12" cy="78.13" r="3.04"/>
        <circle cx="252.14" cy="118.02" r="3.04"/>
        <circle cx="310.42" cy="69.11" r="3.04"/>
        <circle cx="264.46" cy="109.02" r="3.04"/>
        <circle cx="294.22" cy="85.31" r="3.04"/>
        <circle cx="306.53" cy="76.31" r="3.04"/>
        <circle cx="278.00" cy="101.53" r="3.04"/>
        <circle cx="291.45" cy="94.02" r="3.04"/>
        <circle cx="249.42" cy="126.74" r="3.04"/>
        <circle cx="303.75" cy="85.06" r="3.04"/>
        <circle cx="316.06" cy="76.10" r="3.04"/>
        <circle cx="261.74" cy="117.79" r="3.04"/>
        <circle cx="274.05" cy="108.85" r="3.04"/>
        <circle cx="286.36" cy="99.90" r="3.04"/>
        <circle cx="299.75" cy="92.40" r="3.04"/>
        <circle cx="312.07" cy="83.46" r="3.04"/>
        <circle cx="270.06" cy="116.27" r="3.04"/>
        <circle cx="257.73" cy="125.20" r="3.04"/>
        <circle cx="283.37" cy="108.75" r="3.04"/>
        <circle cx="321.33" cy="83.38" r="3.04"/>
        <circle cx="308.99" cy="92.30" r="3.04"/>
        <circle cx="296.64" cy="101.20" r="3.04"/>
        <circle cx="291.60" cy="107.37" r="3.04"/>
        <circle cx="317.20" cy="90.91" r="3.04"/>
        <circle cx="304.83" cy="99.81" r="3.04"/>
        <circle cx="279.24" cy="116.28" r="3.04"/>
        <circle cx="266.87" cy="125.19" r="3.04"/>
        <circle cx="254.48" cy="134.07" r="3.04"/>
        <circle cx="326.20" cy="90.93" r="3.04"/>
        <circle cx="313.80" cy="99.82" r="3.04"/>
        <circle cx="275.04" cy="123.96" r="3.04"/>
        <circle cx="288.20" cy="116.33" r="3.04"/>
        <circle cx="301.37" cy="108.71" r="3.04"/>
        <circle cx="321.91" cy="98.62" r="3.04"/>
        <circle cx="262.61" cy="132.88" r="3.04"/>
        <circle cx="309.46" cy="107.52" r="3.04"/>
        <circle cx="296.31" cy="115.19" r="3.04"/>
        <circle cx="330.67" cy="98.73" r="3.04"/>
        <circle cx="283.84" cy="124.10" r="3.04"/>
        <circle cx="318.17" cy="107.61" r="3.04"/>
        <circle cx="271.33" cy="133.00" r="3.04"/>
        <circle cx="305.62" cy="116.49" r="3.04"/>
        <circle cx="326.19" cy="106.58" r="3.04"/>
        <circle cx="292.48" cy="124.24" r="3.04"/>
        <circle cx="258.76" cy="141.88" r="3.04"/>
        <circle cx="313.61" cy="115.49" r="3.04"/>
        <circle cx="279.36" cy="132.04" r="3.04"/>
        <circle cx="334.73" cy="106.74" r="3.04"/>
        <circle cx="300.48" cy="123.31" r="3.04"/>
        <circle cx="322.08" cy="115.64" r="3.04"/>
        <circle cx="266.74" cy="140.98" r="3.04"/>
        <circle cx="287.83" cy="132.25" r="3.04"/>
        <circle cx="330.02" cy="114.77" r="3.04"/>
        <circle cx="309.37" cy="124.53" r="3.04"/>
        <circle cx="338.36" cy="114.96" r="3.04"/>
        <circle cx="317.27" cy="123.70" r="3.04"/>
        <circle cx="296.18" cy="132.44" r="3.04"/>
        <circle cx="275.10" cy="141.17" r="3.04"/>
        <circle cx="304.08" cy="131.69" r="3.04"/>
        <circle cx="325.53" cy="123.88" r="3.04"/>
        <circle cx="282.99" cy="140.45" r="3.04"/>
        <circle cx="333.39" cy="123.16" r="3.04"/>
        <circle cx="262.23" cy="150.08" r="3.04"/>
        <circle cx="312.60" cy="132.78" r="3.04"/>
        <circle cx="291.18" cy="140.67" r="3.04"/>
        <circle cx="341.56" cy="123.36" r="3.04"/>
        <circle cx="320.43" cy="132.12" r="3.04"/>
        <circle cx="270.07" cy="149.45" r="3.04"/>
        <circle cx="299.29" cy="140.88" r="3.04"/>
        <circle cx="328.51" cy="132.30" r="3.04"/>
        <circle cx="307.10" cy="140.30" r="3.04"/>
        <circle cx="278.13" cy="149.65" r="3.04"/>
        <circle cx="336.30" cy="131.72" r="3.04"/>
        <circle cx="344.30" cy="131.92" r="3.04"/>
        <circle cx="285.92" cy="149.13" r="3.04"/>
        <circle cx="315.31" cy="141.23" r="3.04"/>
        <circle cx="323.07" cy="140.71" r="3.04"/>
        <circle cx="293.88" cy="149.33" r="3.04"/>
        <circle cx="330.99" cy="140.88" r="3.04"/>
        <circle cx="264.84" cy="158.60" r="3.04"/>
        <circle cx="301.79" cy="149.52" r="3.04"/>
        <circle cx="338.73" cy="140.43" r="3.04"/>
        <circle cx="309.52" cy="149.10" r="3.04"/>
        <circle cx="346.60" cy="140.60" r="3.04"/>
        <circle cx="272.57" cy="158.19" r="3.04"/>
        <circle cx="317.49" cy="149.82" r="3.04"/>
        <circle cx="280.41" cy="158.35" r="3.04"/>
        <circle cx="325.19" cy="149.44" r="3.04"/>
        <circle cx="288.11" cy="158.02" r="3.04"/>
        <circle cx="332.99" cy="149.59" r="3.04"/>
        <circle cx="340.67" cy="149.26" r="3.04"/>
        <circle cx="295.90" cy="158.18" r="3.04"/>
        <circle cx="348.44" cy="149.40" r="3.04"/>
        <circle cx="303.66" cy="158.31" r="3.04"/>
        <circle cx="311.33" cy="158.04" r="3.04"/>
        <circle cx="319.12" cy="158.54" r="3.04"/>
        <circle cx="326.77" cy="158.29" r="3.04"/>
        <circle cx="266.58" cy="167.33" r="3.04"/>
        <circle cx="334.48" cy="158.40" r="3.04"/>
        <circle cx="274.23" cy="167.13" r="3.04"/>
        <circle cx="342.12" cy="158.18" r="3.04"/>
        <circle cx="349.81" cy="158.28" r="3.04"/>
        <circle cx="281.92" cy="167.23" r="3.04"/>
        <circle cx="289.56" cy="167.06" r="3.04"/>
        <circle cx="297.23" cy="167.15" r="3.04"/>
        <circle cx="304.89" cy="167.22" r="3.04"/>
        <circle cx="312.52" cy="167.09" r="3.04"/>
        <circle cx="320.19" cy="167.34" r="3.04"/>
        <circle cx="327.82" cy="167.22" r="3.04"/>
        <circle cx="335.46" cy="167.28" r="3.04"/>
        <circle cx="343.08" cy="167.17" r="3.04"/>
        <circle cx="350.72" cy="167.22" r="3.04"/>
        <circle cx="267.42" cy="176.20" r="3.04"/>
        <circle cx="275.03" cy="176.20" r="3.04"/>
        <circle cx="282.65" cy="176.20" r="3.04"/>
        <circle cx="290.26" cy="176.20" r="3.04"/>
        <circle cx="297.87" cy="176.20" r="3.04"/>
        <circle cx="305.49" cy="176.20" r="3.04"/>
        <circle cx="313.10" cy="176.20" r="3.04"/>
        <circle cx="320.71" cy="176.20" r="3.04"/>
        <circle cx="328.32" cy="176.20" r="3.04"/>
        <circle cx="335.93" cy="176.20" r="3.04"/>
        <circle cx="343.54" cy="176.20" r="3.04"/>
        <circle cx="351.15" cy="176.20" r="3.04"/>
    </g>
</svg>

